<?xml version="1.0" encoding="utf-8"?>
<!-- Generator: Adobe Illustrator 26.1.0, SVG Export Plug-In . SVG Version: 6.00 Build 0)  -->
<svg version="1.1" id="Слой_1" xmlns="http://www.w3.org/2000/svg" xmlns:xlink="http://www.w3.org/1999/xlink" x="0px" y="0px"
	 viewBox="0 0 70 70" style="enable-background:new 0 0 70 70;" xml:space="preserve" width="70" height="70">
<style type="text/css">
	.st0{fill:#343A41;}
	.st1{fill:none;stroke:#FFFFFF;stroke-width:3;stroke-linecap:round;stroke-linejoin:round;stroke-miterlimit:10;}
	.st2{fill:none;stroke:#FFFFFF;stroke-width:3;stroke-linecap:round;stroke-linejoin:round;}
</style>
<path class="st0" d="M10,0h50c5.5,0,10,4.5,10,10v50c0,5.5-4.5,10-10,10H10C4.5,70,0,65.5,0,60V10C0,4.5,4.5,0,10,0z"/>
<path class="st1" d="M23.1,40.7l18-18"/>
<path class="st1" d="M33.9,44.3l1.8-1.8"/>
<path class="st1" d="M38,40.3l3.6-3.6"/>
<path class="st2" d="M22.6,32.2l10-10c3.2-3.2,4.8-3.2,7.9,0l7.4,7.4c3.2,3.2,3.1,4.8,0,7.9l-10,10c-3.2,3.2-4.8,3.2-7.9,0l-7.4-7.4
	C19.4,37,19.4,35.4,22.6,32.2z"/>
<path class="st2" d="M20.2,49.9h30.1"/>
</svg>
