<?xml version="1.0" encoding="utf-8"?>
<!-- Generator: Adobe Illustrator 26.1.0, SVG Export Plug-In . SVG Version: 6.00 Build 0)  -->
<svg version="1.1" id="Слой_1" xmlns="http://www.w3.org/2000/svg" xmlns:xlink="http://www.w3.org/1999/xlink" x="0px" y="0px"
	 viewBox="0 0 70 70" style="enable-background:new 0 0 70 70;" xml:space="preserve" width="70" height="70">
<style type="text/css">
	.st0{fill:#343A41;}
	.st1{fill:none;stroke:#FFFFFF;stroke-width:3;stroke-linecap:round;stroke-linejoin:round;}
</style>
<path class="st0" d="M10,0h50c5.5,0,10,4.5,10,10v50c0,5.5-4.5,10-10,10H10C4.5,70,0,65.5,0,60V10C0,4.5,4.5,0,10,0z"/>
<path class="st1" d="M30,34l3.6,3.6l7.2-7.3"/>
<path class="st1" d="M33.6,19.7c1-0.9,2.7-0.9,3.8,0l2.4,2c0.4,0.4,1.3,0.7,1.9,0.7h2.5c1.6,0,2.9,1.3,2.9,2.9v2.6
	c0,0.6,0.3,1.4,0.7,1.9l2,2.4c0.9,1,0.9,2.7,0,3.8l-2,2.4c-0.4,0.4-0.7,1.3-0.7,1.9v2.5c0,1.6-1.3,2.9-2.9,2.9h-2.5
	c-0.6,0-1.4,0.3-1.9,0.7l-2.4,2c-1,0.9-2.7,0.9-3.8,0l-2.4-2c-0.5-0.4-1.3-0.7-1.9-0.7h-2.6c-1.6,0-2.9-1.3-2.9-2.9v-2.6
	c0-0.6-0.3-1.4-0.7-1.9l-2-2.4c-0.9-1-0.9-2.7,0-3.8l2-2.4c0.4-0.5,0.7-1.3,0.7-1.9v-2.6c0-1.6,1.3-2.9,2.9-2.9h2.6
	c0.6,0,1.4-0.3,1.9-0.7L33.6,19.7z"/>
</svg>
