<?xml version="1.0" encoding="utf-8"?>
<!-- Generator: Adobe Illustrator 26.1.0, SVG Export Plug-In . SVG Version: 6.00 Build 0)  -->
<svg version="1.1" id="Слой_1" xmlns="http://www.w3.org/2000/svg" xmlns:xlink="http://www.w3.org/1999/xlink" x="0px" y="0px"
	 viewBox="0 0 70 70" style="enable-background:new 0 0 70 70;" xml:space="preserve" width="70" height="70">
<style type="text/css">
	.st0{fill:#343A41;}
	.st1{fill:none;stroke:#FFFFFF;stroke-width:3;stroke-linecap:round;stroke-linejoin:round;}
</style>
<path class="st0" d="M10,0h50c5.5,0,10,4.5,10,10v50c0,5.5-4.5,10-10,10H10C4.5,70,0,65.5,0,60V10C0,4.5,4.5,0,10,0z"/>
<path class="st1" d="M44.3,28.6c-0.1,0-0.2,0-0.3,0c-2.1-0.1-3.7-1.8-3.7-3.9c0-2.1,1.7-3.9,3.9-3.9s3.9,1.7,3.9,3.9
	C48,26.8,46.4,28.5,44.3,28.6z"/>
<path class="st1" d="M42.8,39.5c2.1,0.3,4.3,0,5.9-1.1c2.1-1.4,2.1-3.7,0-5.1c-1.6-1.1-3.9-1.4-6-1.1"/>
<path class="st1" d="M26.3,28.6c0.1,0,0.2,0,0.3,0c2.1-0.1,3.7-1.8,3.7-3.9c0-2.1-1.7-3.9-3.9-3.9s-3.9,1.7-3.9,3.9
	C22.5,26.8,24.2,28.5,26.3,28.6z"/>
<path class="st1" d="M27.8,39.5c-2.1,0.3-4.3,0-5.9-1.1c-2.1-1.4-2.1-3.7,0-5.1c1.6-1.1,3.9-1.4,6-1.1"/>
<path class="st1" d="M35.3,39.8c-0.1,0-0.2,0-0.3,0c-2.1-0.1-3.7-1.8-3.7-3.9c0-2.1,1.7-3.9,3.9-3.9s3.9,1.7,3.9,3.9
	C39,38,37.4,39.8,35.3,39.8z"/>
<path class="st1" d="M30.9,44.5c-2.1,1.4-2.1,3.7,0,5.1c2.4,1.6,6.3,1.6,8.7,0c2.1-1.4,2.1-3.7,0-5.1C37.3,43,33.3,43,30.9,44.5z"/>
</svg>
