<?xml version="1.0" encoding="utf-8"?>
<!-- Generator: Adobe Illustrator 26.1.0, SVG Export Plug-In . SVG Version: 6.00 Build 0)  -->
<svg version="1.1" id="Слой_1" xmlns="http://www.w3.org/2000/svg" xmlns:xlink="http://www.w3.org/1999/xlink" x="0px" y="0px"
	 viewBox="0 0 70 70" style="enable-background:new 0 0 70 70;" xml:space="preserve" width="70" height="70">
<style type="text/css">
	.st0{fill:#343A41;}
	.st1{fill:none;stroke:#FFFFFF;stroke-width:3;stroke-linecap:round;stroke-linejoin:round;}
</style>
<path class="st0" d="M10,0h50c5.5,0,10,4.5,10,10v50c0,5.5-4.5,10-10,10H10C4.5,70,0,65.5,0,60V10C0,4.5,4.5,0,10,0z"/>
<path class="st1" d="M36.7,19.1l9.8,5.3c1.1,0.6,1.1,2.4,0,3l-9.8,5.3c-0.9,0.5-1.9,0.5-2.8,0l-9.8-5.3c-1.1-0.6-1.1-2.4,0-3
	l9.8-5.3C34.8,18.7,35.8,18.7,36.7,19.1z"/>
<path class="st1" d="M22.7,31l9.1,4.6c1.1,0.6,1.8,1.7,1.8,3v8.6c0,1.3-1.3,2.1-2.4,1.5l-9.1-4.6c-1.1-0.6-1.8-1.7-1.8-3v-8.6
	C20.3,31.3,21.6,30.5,22.7,31z"/>
<path class="st1" d="M47.9,31l-9.1,4.6c-1.1,0.6-1.8,1.7-1.8,3v8.6c0,1.3,1.3,2.1,2.4,1.5l9.1-4.6c1.1-0.6,1.8-1.7,1.8-3v-8.6
	C50.3,31.3,49,30.5,47.9,31z"/>
</svg>
